<svg xmlns="http://www.w3.org/2000/svg" version="1.1" xmlns:xlink="http://www.w3.org/1999/xlink" xmlns:svgjs="http://svgjs.dev/svgjs" width="1440" height="560" preserveAspectRatio="none" viewBox="0 0 1440 560"><g mask="url(&quot;#SvgjsMask1062&quot;)" fill="none"><rect width="1440" height="560" x="0" y="0" fill="rgba(18, 76, 95, 1)"></rect><path d="M0,605.521C110.745,627.891,209.779,535.385,305.542,475.432C402.386,414.803,525.888,364.679,559.249,255.401C592.519,146.422,482.426,45.633,471.377,-67.774C459.505,-189.626,573.762,-335.177,492.767,-426.985C411.518,-519.081,255.419,-448.79,132.641,-451.734C43.33,-453.876,-44.348,-468.109,-129.758,-441.914C-214.454,-415.938,-290.206,-368.624,-350.37,-303.597C-411.923,-237.068,-453.63,-156.336,-475.385,-68.35C-498.855,26.572,-526.875,133.433,-479.591,219.022C-432.675,303.944,-310.871,305.3,-235.329,366.179C-146.411,437.837,-111.937,582.91,0,605.521" fill="#0e3b4a"></path><path d="M1440 998.533C1542.32 1001.312 1653.903 1082.161 1739.584 1026.161 1825.386 970.082 1810.813 839.995 1834.979 740.381 1854.554 659.691 1864.887 581.509 1867.585 498.523 1870.8609999999999 397.764 1903.7730000000001 289.376 1852.463 202.598 1799.18 112.48399999999998 1696.248 57.92599999999999 1593.941 35.72500000000002 1494.921 14.236999999999966 1397.21 54.625999999999976 1299.846 82.68 1201.976 110.88 1102.51 134.529 1024.359 199.84500000000003 937.3679999999999 272.55 857.045 361.923 833.132 472.745 808.56 586.622 833.45 709.64 892.716 809.936 949.238 905.5899999999999 1045.651 973.9680000000001 1150.695 1010.1669999999999 1243.828 1042.261 1341.528 995.858 1440 998.533" fill="#165d74"></path></g><defs><mask id="SvgjsMask1062"><rect width="1440" height="560" fill="#ffffff"></rect></mask></defs></svg>