<?xml version="1.0" encoding="UTF-8"?>
<svg id="OBJECTS" xmlns="http://www.w3.org/2000/svg" xmlns:xlink="http://www.w3.org/1999/xlink" viewBox="0 0 750 500">
  <defs>
    <style>
      .cls-1 {
        stroke: #fff;
      }

      .cls-1, .cls-2, .cls-3, .cls-4 {
        fill: none;
      }

      .cls-1, .cls-2, .cls-4 {
        stroke-linecap: round;
        stroke-miterlimit: 10;
        stroke-width: 3px;
      }

      .cls-2 {
        stroke: #31346b;
      }

      .cls-5 {
        clip-path: url(#clippath);
      }

      .cls-3, .cls-6, .cls-7, .cls-8, .cls-9, .cls-10, .cls-11, .cls-12, .cls-13 {
        stroke-width: 0px;
      }

      .cls-6 {
        fill: #deecf5;
      }

      .cls-4 {
        stroke: #124c5f;
      }

      .cls-7 {
        fill: #b8e3db;
      }

      .cls-8 {
        fill: #cef0e6;
      }

      .cls-9 {
        fill: #ffee94;
      }

      .cls-10 {
        fill: #124c5f;
      }

      .cls-11 {
        fill: #f7f3ea;
      }

      .cls-12 {
        fill: #fff;
      }

      .cls-13 {
        fill: #c7e7e1;
      }
    </style>
    <clipPath id="clippath">
      <rect class="cls-3" width="750" height="500"/>
    </clipPath>
  </defs>
  <g class="cls-5">
    <g>
      <path class="cls-13" d="M249.24.92l26.22,26.22c18.18,18.18,47.66,18.18,65.84,0l15.02-15.02c3.17-3.17,8.31-3.17,11.48,0l.15.15c3.3,3.3,3.3,8.59.03,11.86-5.04,5.03-39.84,39.84-47.67,47.67-16.58,16.58-16.59,43.47,0,60.05h0c16.58,16.58,43.47,16.58,60.05,0L525.86-13.64l32.03,4.36-52.96,52.96c-23.12,23.12-23.12,60.6,0,83.71h0c23.12,23.12,60.6,23.12,83.71,0l80.98-80.98c3.52-3.52,9.22-3.52,12.74,0h0c3.52,3.52,3.52,9.22,0,12.74l-119.93,119.93c-13.07,13.07-13.07,34.25,0,47.32h0c13.07,13.07,34.25,13.07,47.32,0l83.08-83.08c3.77-3.77,9.88-3.77,13.65,0h0c3.77,3.77,3.77,9.88,0,13.65l-1.45,1.45c-27.59,27.59-27.59,72.32,0,99.91l61.96,61.96V-39.08"/>
      <circle class="cls-9" cx="124.49" cy=".21" r="64.93"/>
      <circle class="cls-9" cx="657.7" cy="500.15" r="40.74"/>
      <path class="cls-13" d="M232.16,43.57c-20.58,0-37.32,16.74-37.32,37.31s16.74,37.32,37.32,37.32,37.31-16.74,37.31-37.32-16.74-37.31-37.31-37.31ZM232.16,110.84c-16.55,0-29.97-13.41-29.97-29.96s13.41-29.96,29.97-29.96,29.96,13.41,29.96,29.96-13.41,29.96-29.96,29.96Z"/>
      <circle class="cls-9" cx="692.96" cy="294.53" r="17.56"/>
      <circle class="cls-9" cx="216.24" cy="332.96" r="8.42"/>
      <circle class="cls-9" cx="234.26" cy="314.94" r="8.42"/>
      <circle class="cls-9" cx="3.69" cy="202.44" r="17.56"/>
      <path class="cls-13" d="M-3.9,309.93l81.97-81.97c18.38-18.38,48.17-18.38,66.55,0h0c18.38,18.38,18.38,48.17,0,66.55l-37.33,37.33c-8.07,8.07-8.07,21.15,0,29.22h0c8.07,8.07,21.15,8.07,29.22,0l8.12-8.12c16.58-16.58,43.47-16.58,60.06,0h0c16.58,16.58,16.58,43.47,0,60.06l-33.27,33.27c-3.59,3.59-3.59,9.4,0,12.99h0c3.59,3.59,9.4,3.59,12.99,0l81.16-81.16c14.34-14.34,37.6-14.34,51.94,0h0c14.34,14.34,14.34,37.6,0,51.94l-21.91,21.91c-3.14,3.14-3.14,8.22,0,11.36h0c3.14,3.14,8.22,3.14,11.36,0l1.82-1.82c38.44-38.44,100.76-38.44,139.2,0l37.53,37.53H-122.39S3.4,317.23-3.9,309.93Z"/>
      <g>
        <path class="cls-10" d="M585.05,409.49h0c1.76-1.76,4.61-1.76,6.37,0l13.56,13.56c1.76,1.76,1.76,4.61,0,6.37h0c-1.76,1.76-4.61,1.76-6.37,0l-13.56-13.56c-1.76-1.76-1.76-4.61,0-6.37Z"/>
        <path class="cls-10" d="M604.99,409.49h0c1.76,1.76,1.76,4.61,0,6.37l-13.56,13.56c-1.76,1.76-4.61,1.76-6.37,0h0c-1.76-1.76-1.76-4.61,0-6.37l13.56-13.56c1.76-1.76,4.61-1.76,6.37,0Z"/>
      </g>
      <g>
        <path class="cls-10" d="M207.02,194.19h0c1.14-1.14,3-1.14,4.14,0l8.82,8.82c1.14,1.14,1.14,3,0,4.14h0c-1.14,1.14-3,1.14-4.14,0l-8.82-8.82c-1.14-1.14-1.14-3,0-4.14h0Z"/>
        <path class="cls-10" d="M219.98,194.19h0c1.14,1.14,1.14,3,0,4.14l-8.82,8.82c-1.14,1.14-3,1.14-4.14,0h0c-1.14-1.14-1.14-3,0-4.14l8.82-8.82c1.14-1.14,3-1.14,4.14,0Z"/>
      </g>
      <circle class="cls-10" cx="400.35" cy="112.05" r="19.08"/>
      <circle class="cls-10" cx="55.16" cy="103.93" r="10.59"/>
      <g>
        <circle class="cls-10" cx="495.12" cy="165.64" r="3.16"/>
        <circle class="cls-10" cx="495.12" cy="182.13" r="3.16"/>
        <circle class="cls-10" cx="511.18" cy="165.64" r="3.16" transform="translate(265.8 643.69) rotate(-80.78)"/>
        <circle class="cls-10" cx="511.18" cy="182.13" r="3.16" transform="translate(249.52 657.54) rotate(-80.78)"/>
      </g>
      <g>
        <g>
          <circle class="cls-10" cx="45.68" cy="135.87" r="3.16"/>
          <circle class="cls-10" cx="45.68" cy="152.36" r="3.16"/>
          <circle class="cls-10" cx="61.74" cy="135.87" r="3.16"/>
          <circle class="cls-10" cx="61.74" cy="152.36" r="3.16"/>
        </g>
        <g>
          <circle class="cls-10" cx="13.17" cy="135.87" r="3.16"/>
          <circle class="cls-10" cx="13.17" cy="152.36" r="3.16"/>
          <circle class="cls-10" cx="29.23" cy="135.87" r="3.16"/>
          <circle class="cls-10" cx="29.23" cy="152.36" r="3.16"/>
        </g>
      </g>
      <g>
        <g>
          <g>
            <circle class="cls-10" cx="656.36" cy="411.07" r="3.16"/>
            <path class="cls-10" d="M659.52,427.56c0,1.74-1.41,3.16-3.16,3.16s-3.16-1.41-3.16-3.16,1.41-3.16,3.16-3.16,3.16,1.41,3.16,3.16Z"/>
            <circle class="cls-10" cx="672.42" cy="411.07" r="3.16"/>
            <path class="cls-10" d="M675.58,427.56c0,1.74-1.41,3.16-3.16,3.16s-3.16-1.41-3.16-3.16,1.41-3.16,3.16-3.16,3.16,1.41,3.16,3.16Z"/>
          </g>
          <g>
            <circle class="cls-10" cx="623.86" cy="411.07" r="3.16"/>
            <path class="cls-10" d="M627.01,427.56c0,1.74-1.41,3.16-3.16,3.16s-3.16-1.41-3.16-3.16,1.41-3.16,3.16-3.16,3.16,1.41,3.16,3.16Z"/>
            <circle class="cls-10" cx="639.92" cy="411.07" r="3.16"/>
            <path class="cls-10" d="M643.07,427.56c0,1.74-1.41,3.16-3.16,3.16s-3.16-1.41-3.16-3.16,1.41-3.16,3.16-3.16,3.16,1.41,3.16,3.16Z"/>
          </g>
        </g>
        <g>
          <g>
            <circle class="cls-10" cx="721.31" cy="411.07" r="3.16"/>
            <path class="cls-10" d="M724.47,427.56c0,1.74-1.41,3.16-3.16,3.16s-3.16-1.41-3.16-3.16,1.41-3.16,3.16-3.16,3.16,1.41,3.16,3.16Z"/>
            <path class="cls-10" d="M740.53,411.07c0,1.74-1.41,3.16-3.16,3.16s-3.16-1.41-3.16-3.16,1.41-3.16,3.16-3.16,3.16,1.41,3.16,3.16Z"/>
            <path class="cls-10" d="M740.53,427.56c0,1.74-1.41,3.16-3.16,3.16s-3.16-1.41-3.16-3.16,1.41-3.16,3.16-3.16,3.16,1.41,3.16,3.16Z"/>
          </g>
          <g>
            <circle class="cls-10" cx="688.81" cy="411.07" r="3.16"/>
            <path class="cls-10" d="M691.96,427.56c0,1.74-1.41,3.16-3.16,3.16s-3.16-1.41-3.16-3.16,1.41-3.16,3.16-3.16,3.16,1.41,3.16,3.16Z"/>
            <circle class="cls-10" cx="704.87" cy="411.07" r="3.16"/>
            <path class="cls-10" d="M708.02,427.56c0,1.74-1.41,3.16-3.16,3.16s-3.16-1.41-3.16-3.16,1.41-3.16,3.16-3.16,3.16,1.41,3.16,3.16Z"/>
          </g>
        </g>
      </g>
      <circle class="cls-10" cx="232.48" cy="404.42" r="7.79"/>
      <circle class="cls-10" cx="652.43" cy="184.37" r="7.79"/>
      <line class="cls-1" x1="645.9" y1="135.63" x2="773.08" y2="8.44"/>
      <line class="cls-1" x1="418.63" y1="57.63" x2="485.22" y2="-8.97"/>
      <line class="cls-1" x1="-13.47" y1="417.04" x2="115.78" y2="287.78"/>
      <line class="cls-1" x1="127.06" y1="575.45" x2="242.91" y2="459.6"/>
      <line class="cls-1" x1="-76.95" y1="443.91" x2="38.9" y2="328.06"/>
      <circle class="cls-8" cx="163.6" cy="200.22" r="15.75"/>
      <circle class="cls-7" cx="456.09" cy="120.19" r="8.32"/>
      <circle class="cls-11" cx="720.77" cy="125.21" r="8.32"/>
      <circle class="cls-12" cx="73.73" cy="392.07" r="20.45" transform="translate(-21.57 4.68) rotate(-3.17)"/>
      <path class="cls-13" d="M482.42,430.29c-38.58,0-69.97,31.38-69.97,69.96s31.39,69.97,69.97,69.97,69.96-31.39,69.96-69.97-31.38-69.96-69.96-69.96h0ZM482.42,556.41c-31.04,0-56.18-25.15-56.18-56.17s25.15-56.17,56.18-56.17,56.17,25.15,56.17,56.17-25.15,56.17-56.17,56.17h0Z"/>
      <path class="cls-6" d="M30.4,507.35c1.41-.47,54.87-54.5,75.31-75.21,4.33-4.38,11.39-4.4,15.75-.04h0c4.34,4.34,4.34,11.37,0,15.7l-16.8,16.8c-2.18,2.18-2.18,5.7,0,7.88h0c2.18,2.18,5.7,2.18,7.88,0l7-7c4.75-4.75,12.46-4.75,17.21,0h0c4.75,4.75,4.75,12.46,0,17.21h0c-2.01,2.01-2.01,5.28,0,7.29l19.69,19.69H28.65"/>
      <path class="cls-6" d="M630.91-9.2l-60.9,60.9c-5.65,5.65-5.65,14.81,0,20.47h0c5.65,5.65,14.81,5.65,20.47,0l32.54-32.54c1.95-1.95,5.1-1.95,7.05,0h0c1.95,1.95,1.95,5.1,0,7.05l-11.07,11.07c-3.06,3.06-3.06,8.01,0,11.07h0c3.06,3.06,8.01,3.06,11.07,0l29.84-29.84c6.69-6.69,16.75-7.96,24.72-3.81,1.86.97,3.62,2.24,5.18,3.81l.82.82,58.04-58.04s-117.76,8.39-117.76,9.06v-.02Z"/>
      <line class="cls-4" x1="299.24" y1="515.6" x2="443.92" y2="370.92"/>
      <line class="cls-4" x1="-92.09" y1="594.09" x2="52.58" y2="449.41"/>
      <line class="cls-2" x1="465.01" y1="-40.44" x2="347.83" y2="76.74"/>
      <line class="cls-4" x1="222.5" y1="92.52" x2="193.11" y2="121.91"/>
      <line class="cls-4" x1="390.71" y1="456.23" x2="418.92" y2="428.02"/>
      <path class="cls-6" d="M694.41,43.42l-4.59-4.46s49.27-55.73,50.42-56.88c1.16-1.16,35.49,3.74,35.49,3.74l-54.74,57.12c-7.19,7.51-19.12,7.72-26.58.48h0Z"/>
    </g>
  </g>
</svg>