<svg width="784" height="774" viewBox="0 0 784 774" fill="none" xmlns="http://www.w3.org/2000/svg">
<mask id="mask0_357_13" style="mask-type:alpha" maskUnits="userSpaceOnUse" x="73" y="177" width="623" height="402">
<path d="M688.506 315.171C717.118 364.729 628.392 388.664 674.771 423.025C685.39 429.993 693.147 442.954 695.476 464.436C695.476 487.988 691.224 506.763 681.241 527.319C673.948 542.338 662.433 554.792 645.099 557.542C625.337 557.542 634.981 559.347 606.002 555.037C577.023 550.726 552.218 532.997 523.385 529.498C501.204 526.805 475.365 523.452 453.224 527.319C427.337 531.841 406.689 539.592 382.639 549.652C361.658 558.429 340.909 558.476 319.685 564.802C297.148 571.519 277.718 575.603 254.451 578.316C247.085 579.174 239.18 578.923 225.722 576.737C198.986 572.393 180.857 560.744 159.31 545.35C134.075 527.323 120.841 501.671 105.758 475.547C91.7884 451.351 81.0749 422.595 76.3465 395.024C66.1376 335.495 83.0417 265.897 128.148 225.806C141.473 213.962 154.714 200.139 173.441 193.971C194.657 186.983 214.522 192.637 231.416 186.983C260.387 177.287 285.956 175.715 316.234 179.632C392.838 189.542 392.429 255.215 470.611 256.781C498.109 257.332 516.277 246.653 541.043 237.753C563.851 229.556 595.841 230.111 617.677 240.433C653.508 257.371 669.087 281.536 688.506 315.171Z" fill="#939878"/>
</mask>
<g mask="url(#mask0_357_13)">
<path d="M688.506 315.171C717.118 364.729 628.392 388.664 674.771 423.025C685.39 429.993 693.147 442.954 695.476 464.436C695.476 487.988 691.224 506.763 681.241 527.319C673.948 542.338 662.433 554.792 645.099 557.542C625.337 557.542 634.981 559.347 606.002 555.037C577.023 550.726 552.218 532.997 523.385 529.498C501.204 526.805 475.365 523.452 453.224 527.319C427.337 531.841 406.689 539.592 382.639 549.652C361.658 558.429 340.909 558.476 319.685 564.802C297.148 571.519 277.718 575.603 254.451 578.316C247.085 579.174 239.18 578.923 225.722 576.737C198.986 572.393 180.857 560.744 159.31 545.35C134.075 527.323 120.841 501.671 105.758 475.547C91.7884 451.351 81.0749 422.595 76.3465 395.024C66.1376 335.495 83.0417 265.897 128.148 225.806C141.473 213.962 154.714 200.139 173.441 193.971C194.657 186.983 214.522 192.637 231.416 186.983C260.387 177.287 285.956 175.715 316.234 179.632C392.838 189.542 392.429 255.215 470.611 256.781C498.109 257.332 516.277 246.653 541.043 237.753C563.851 229.556 595.841 230.111 617.677 240.433C653.508 257.371 669.087 281.536 688.506 315.171Z" fill="#F6FFFE"/>
<path d="M133.996 400.458H143.188C144.409 400.585 145.774 400.932 146.001 401.991C146.099 402.451 146.144 402.921 146.135 403.392C145.809 403.784 133.62 403.341 133.62 403.341L133.567 403.297C132.275 401.732 133.996 400.458 133.996 400.458Z" fill="#12375A"/>
<path d="M146.135 403.382L133.62 403.331L133.728 403.817H146.152L146.135 403.382Z" fill="#212B53"/>
<path d="M137.635 400.448L138.463 400.454L138.206 401.579H137.402L137.635 400.448Z" fill="white"/>
<path d="M139.41 400.448L140.237 400.454L139.98 401.579H139.176L139.41 400.448Z" fill="white"/>
<path d="M133.365 397.397L133.996 400.458C134.379 400.643 134.797 400.744 135.222 400.754C135.647 400.765 136.07 400.684 136.461 400.517L136.6 400.456L137.043 397.397H133.365Z" fill="#F7B58E"/>
<path d="M112.512 400.458H121.703C122.925 400.585 124.289 400.932 124.517 401.991C124.615 402.451 124.66 402.921 124.65 403.392C124.325 403.784 112.136 403.341 112.136 403.341L112.083 403.297C110.793 401.732 112.512 400.458 112.512 400.458Z" fill="#212B53"/>
<path d="M124.65 403.382L112.136 403.331L112.243 403.817H124.668L124.65 403.382Z" fill="#212B53"/>
<path d="M116.151 400.448L116.978 400.454L116.722 401.579H115.918L116.151 400.448Z" fill="white"/>
<path d="M117.925 400.448L118.753 400.454L118.496 401.579H117.692L117.925 400.448Z" fill="white"/>
<path d="M112.91 397.397L112.518 400.458C112.901 400.643 113.319 400.744 113.744 400.754C114.169 400.765 114.591 400.684 114.982 400.517L115.122 400.456L116.594 397.397H112.91Z" fill="#F7B58E"/>
<path d="M126.628 294.405L119.059 299.341L121.396 305.324C121.429 305.41 121.472 305.487 121.509 305.569C121.676 305.559 121.843 305.549 122.011 305.549H122.092H122.172C124.197 305.549 125.94 306.797 126.997 308.475C128.237 308.39 129.45 308.075 130.575 307.548C131.346 307.181 132.016 306.746 132.259 306.271C133.063 302.027 126.628 294.405 126.628 294.405Z" fill="#F7B58E"/>
<path d="M136.261 295.952C136.261 295.952 137.188 304.739 135.322 310.336C136.188 311.089 139.371 314.5 140.37 310.079C141.37 305.659 139.247 294.405 139.247 294.405L136.261 295.952Z" fill="#F7B58E"/>
<path d="M131.716 295.33L129.934 296.476L130.571 297.805L132.481 296.964L131.716 295.33Z" fill="#212B53"/>
<path d="M130.667 296.928C130.846 297.334 130.863 297.713 130.695 297.795C130.526 297.878 130.256 297.599 130.077 297.187C129.899 296.775 129.881 296.393 130.05 296.322C130.218 296.252 130.489 296.523 130.667 296.928Z" fill="#212B53"/>
<path d="M153.207 288.847V288.798C152.736 287.713 152.16 286.677 151.485 285.705C150.197 283.903 149.83 283.003 149.83 283.003L131.438 295.042L132.63 297.291L153.203 289.686C153.182 289.407 153.184 289.126 153.207 288.847Z" fill="#124C5F"/>
<path d="M124.958 308.479L124.297 312.609H130.15L130.571 307.548L124.958 308.479Z" fill="#F39F85"/>
<path d="M140.072 318.73C140.072 318.73 146.986 316.53 149.152 313.568C151.318 310.607 147.652 294.405 147.652 294.405L148.125 291.489C148.187 291.103 148.166 290.708 148.062 290.331C147.958 289.954 147.774 289.604 147.523 289.305C147.271 289.006 146.958 288.765 146.605 288.598C146.252 288.43 145.867 288.342 145.476 288.337L143.629 288.321C143.452 288.319 143.277 288.361 143.12 288.444C142.963 288.527 142.83 288.648 142.732 288.796C142.634 288.944 142.576 289.115 142.561 289.291C142.546 289.468 142.577 289.646 142.649 289.808L145.084 295.273C145.084 295.273 146.907 307.548 144.354 308.479C141.31 309.564 137.863 309.825 137.863 309.825L140.072 318.73Z" fill="#F7B58E"/>
<path d="M127.085 308.479L125.307 304.533L126.464 303.808C126.88 303.547 127.195 303.153 127.358 302.69C127.522 302.227 127.524 301.723 127.364 301.258L126.099 297.532C126.099 297.532 129.701 297.091 129.591 293.736C129.591 292.006 127.215 291.996 127.215 291.996C127.215 291.996 126.503 293.557 124.301 293.734C123.354 293.614 120.754 293.963 119.008 297.025C117.831 299.086 118.345 302.319 119.372 304.732C120.292 306.901 122.643 308.112 124.97 308.471L127.085 308.479Z" fill="#12375A"/>
<path d="M120.056 341.616C120.388 347.501 121.118 353.356 122.243 359.142C122.769 361.83 122.583 364.608 121.703 367.202C117.576 379.466 111.789 397.91 111.789 397.91H116.937C116.937 397.91 128.599 376.113 131.605 365.302C134.61 354.49 135.134 351.054 135.134 351.054L131.556 341.616H120.056Z" fill="#C3E0ED"/>
<path d="M124.35 302.696C124.139 303.318 124.568 304.141 125.307 304.534C126.046 304.926 126.821 304.741 127.032 304.12C127.244 303.498 126.815 302.676 126.076 302.284C125.336 301.892 124.562 302.074 124.35 302.696Z" fill="#F7B58E"/>
<path d="M136.849 341.616H120.056V320.077C120.056 317.8 120.906 315.605 122.439 313.922C123.972 312.239 126.078 311.189 128.344 310.978L140.016 309.564C140.016 309.564 141.388 311.666 145.213 316.547C140.617 319.389 135.296 320.697 135.296 320.697L136.849 341.616Z" fill="#124C5F"/>
<path d="M120.056 341.616C120.056 341.616 122.427 350.197 131.175 359.816C132.314 360.955 133.194 362.325 133.757 363.834C134.32 365.343 134.553 366.955 134.44 368.561L132.636 397.91H137.857C137.857 397.91 144.219 373.538 142.847 361.525C141.474 349.511 136.849 341.616 136.849 341.616H120.056Z" fill="#DEECF5"/>
<path d="M150.389 286.852C151.291 288.725 152.517 290.006 153.124 289.712C153.732 289.417 153.495 287.662 152.591 285.789C151.687 283.917 150.464 282.636 149.846 282.928C149.229 283.22 149.487 284.978 150.389 286.852Z" fill="#317782"/>
<path d="M135.531 292.361L135.688 292.436C136.234 292.7 136.86 292.744 137.437 292.557L137.541 292.524C138.008 292.367 138.431 292.103 138.777 291.752C139.123 291.402 139.381 290.975 139.531 290.506C139.559 290.409 139.562 290.307 139.54 290.209C139.517 290.111 139.47 290.021 139.403 289.946C139.335 289.872 139.25 289.816 139.155 289.784C139.059 289.751 138.957 289.744 138.859 289.763L137.698 290.008C137.245 290.103 136.848 290.374 136.594 290.761L135.531 292.361Z" fill="#F7B58E"/>
<path d="M614.651 308.721C619.529 308.721 623.192 304.21 622.127 299.451C622.127 299.413 622.11 299.378 622.102 299.341C615.422 270.299 587.458 287.78 587.458 287.78C587.458 287.78 586.491 258.56 554.58 265.895C522.669 273.229 525.543 286.627 525.543 286.627C525.543 286.627 503.302 276.096 499.363 293.883C498.708 296.84 498.532 299.498 498.775 301.884C498.975 303.763 499.862 305.501 501.267 306.764C502.671 308.027 504.494 308.725 506.382 308.724L614.651 308.721Z" fill="url(#paint0_linear_357_13)"/>
<path d="M708.416 403.317H476.34L525.835 590.233H708.416V403.317Z" fill="#C7E7E1"/>
<path d="M68.6198 403.48H300.696L251.2 590.396H68.6198V403.48Z" fill="#C7E7E1"/>
<path d="M346.782 297.482L349.588 295.623C349.708 295.541 349.806 295.429 349.871 295.299C349.936 295.168 349.966 295.023 349.958 294.877L349.925 294.177C349.914 293.953 349.816 293.741 349.65 293.589L347.202 291.351C347.061 291.222 346.88 291.144 346.689 291.131C346.498 291.117 346.309 291.169 346.151 291.277L345.81 291.508C345.628 291.632 345.502 291.821 345.457 292.036L344.6 296.127L346.782 297.482Z" fill="#815A45"/>
<path d="M344.6 296.13L344.455 293.157C344.449 293.035 344.471 292.913 344.519 292.801C344.566 292.688 344.639 292.588 344.731 292.508C344.823 292.427 344.932 292.368 345.05 292.336C345.168 292.303 345.291 292.298 345.412 292.32L346.684 292.551C347.023 292.612 347.631 294.375 347.631 294.375C347.631 294.375 346.508 295.16 346.115 293.485C345.919 293.606 345.468 293.534 345.468 293.534C345.468 293.534 346.898 295.03 346.176 297.107L344.6 296.13Z" fill="#6F4A3A"/>
<path d="M347.308 297.601C347.308 297.601 339.491 313.192 335.497 318.724C331.503 324.256 320.033 332.677 320.033 332.677L316.653 318.998C316.653 318.998 326.511 315.469 331.666 311.125C336.82 306.781 344.386 295.473 344.386 295.473L347.308 297.601Z" fill="#C7E7E1"/>
<path d="M294.01 281.968L292.849 278.808C292.801 278.671 292.788 278.524 292.813 278.38C292.838 278.236 292.899 278.102 292.991 277.989L293.432 277.445C293.572 277.271 293.776 277.16 293.998 277.136L297.298 276.781C297.488 276.76 297.679 276.804 297.841 276.906C298.002 277.008 298.125 277.161 298.188 277.341L298.325 277.734C298.398 277.94 298.388 278.167 298.298 278.367L296.569 282.172L294.01 281.968Z" fill="#815A45"/>
<path d="M296.569 282.163L298.445 279.853C298.522 279.758 298.577 279.647 298.605 279.528C298.633 279.409 298.634 279.286 298.607 279.166C298.581 279.047 298.528 278.935 298.452 278.839C298.377 278.743 298.28 278.666 298.171 278.612L297.006 278.045C296.698 277.894 295.165 278.955 295.165 278.955C295.165 278.955 295.61 280.249 296.912 279.134C297.004 279.351 297.404 279.557 297.404 279.557C297.404 279.557 295.367 279.916 294.722 282.018L296.569 282.163Z" fill="#815A45"/>
<path d="M265.156 384.606C265.156 384.606 262.938 386.522 261.156 391.256C260.764 392.298 261.001 393.494 259.233 393.298L259.89 387.387L261.284 382.571L260.435 382.475L260.729 379.821C260.729 379.821 265.152 379.562 265.536 381.174C265.377 382.608 265.156 384.606 265.156 384.606Z" fill="#00666B"/>
<path d="M268.306 384.653L265.156 384.606C264.88 384.095 264.757 383.516 264.801 382.937C264.846 382.358 265.056 381.804 265.407 381.341L265.536 381.17L268.777 380.415L268.306 384.653Z" fill="#6F4A3A"/>
<path d="M300.798 345.096C300.798 345.096 295.933 355.543 295.659 367.533C295.586 370.751 293.024 373.332 289.814 373.575C280.011 374.316 268.265 380.141 268.265 380.141L267.722 385.044C267.722 385.044 297.696 385.665 304.356 382.122C311.016 378.578 317 351.284 317 351.284L300.798 345.096Z" fill="#124C5F"/>
<path d="M318.081 316.902C324.315 322.105 318.204 349.158 318.204 349.158L297.931 344.428L302.406 324.407C302.406 324.407 294.318 311.972 293.461 303.441C292.604 294.911 293.173 281.673 293.173 281.673L296.957 282.093C296.957 282.093 299.288 299.694 301.478 304.334C303.668 308.973 311.893 316.1 311.893 316.1L318.081 316.902Z" fill="#C7E7E1"/>
<path d="M318.075 348.703C318.7 345.779 322.431 327.478 319.62 319.722C319.724 319.569 319.816 319.416 319.918 319.26C323.141 327.335 318.912 347.007 318.455 349.068C318.33 348.944 318.206 348.825 318.075 348.703Z" fill="#124C5F"/>
<path d="M313.622 315.99L314.946 312.264L319.29 313.245L319.112 317.834C319.08 317.863 319.047 317.889 319.012 317.914C317.386 316.868 315.542 316.21 313.622 315.99Z" fill="#6F4A3A"/>
<path d="M313.363 304.508L313.85 310.662C314.461 310.621 314.83 311.268 314.74 311.839C314.808 311.98 314.847 312.133 314.855 312.29C315.65 312.846 316.551 313.233 317.501 313.426C318.452 313.619 319.432 313.615 320.38 313.413C324.259 312.558 321.694 305.087 321.694 305.087L313.363 304.508Z" fill="#815A45"/>
<path d="M311.54 309.191C311.499 308.74 310.856 307.799 310.505 307.512C308.244 305.665 310.179 304.216 310.867 303.747C311.628 303.227 311.436 301.825 312.418 301.011C313.916 299.77 315.428 300.972 316.402 300.762C317.377 300.553 317.951 299.231 319.396 299.882C320.841 300.533 320.716 301.659 321.186 302.117C321.657 302.576 322.461 301.249 323.892 302.706C326.072 304.916 321.949 306.002 321.949 306.002C321.949 306.002 319.704 307.006 316.655 305.91C316.455 305.828 316.233 305.815 316.024 305.872C315.815 305.93 315.631 306.055 315.5 306.228C314.81 307.23 314.946 312.372 314.946 312.372L313.918 311.566C313.918 311.566 311.724 311.258 311.54 309.191Z" fill="#212B53"/>
<path d="M313.893 309.63C313.968 309.801 314.093 309.946 314.251 310.046C314.409 310.146 314.593 310.197 314.779 310.193C314.966 310.188 315.148 310.128 315.3 310.021C315.453 309.913 315.571 309.763 315.638 309.589C315.706 309.414 315.72 309.224 315.679 309.042C315.638 308.859 315.545 308.693 315.409 308.564C315.274 308.435 315.104 308.349 314.92 308.317C314.736 308.284 314.546 308.308 314.375 308.383C314.261 308.433 314.159 308.505 314.073 308.595C313.987 308.685 313.92 308.791 313.875 308.906C313.83 309.022 313.808 309.146 313.812 309.27C313.815 309.394 313.842 309.517 313.893 309.63Z" fill="#815A45"/>
<path d="M319.208 316.188L319.067 318.283L312.413 316.17L314.091 314.054L319.208 316.188Z" fill="#C7E7E1"/>
<path d="M341.792 397.502C341.792 397.502 343.708 399.72 348.439 401.503C349.482 401.895 350.678 401.658 350.482 403.427L344.572 402.772L339.751 401.375L339.657 402.225L337.002 401.93C337.002 401.93 336.746 397.506 338.357 397.122L341.792 397.502Z" fill="#00666B"/>
<path d="M341.839 394.351L341.792 397.502C341.282 397.779 340.702 397.902 340.123 397.858C339.544 397.813 338.99 397.603 338.528 397.251L338.357 397.122L337.6 393.88L341.839 394.351Z" fill="#6F4A3A"/>
<path d="M318.206 349.158C318.206 349.158 337.987 354.39 338.932 358C339.877 361.611 341.853 394.596 341.853 394.596L337.616 394.127C337.616 394.127 325.215 377.429 328.515 367.335C323.564 366.68 324.315 367.617 314.071 365.48C293.275 359.93 297.925 344.428 297.925 344.428L318.206 349.158Z" fill="#317782"/>
<path d="M220.332 315.11C220.332 315.11 218.579 310.884 214.646 312.731C211.49 314.215 213.47 317.869 213.47 317.869C213.47 317.869 221.779 333.289 225.177 332.952C228.575 332.614 244.009 323.415 244.009 323.415L245.859 321.05C246.185 320.597 246.316 319.689 246.342 318.718C246.348 318.375 246.267 318.036 246.107 317.733C245.946 317.429 245.711 317.172 245.424 316.984C245.137 316.797 244.806 316.685 244.464 316.66C244.122 316.635 243.779 316.697 243.467 316.841L241.989 318.802L241.472 321.293C241.472 321.293 226.926 328.316 225.749 326.641C224.573 324.966 220.332 315.11 220.332 315.11Z" fill="#F7B58E"/>
<path d="M170.288 373.952C170.288 373.952 169.401 372.234 167.935 372.491L164.102 373.158V374.181L165.835 374.232C165.882 374.235 165.928 374.25 165.967 374.276C166.006 374.302 166.037 374.339 166.057 374.381C166.077 374.424 166.086 374.471 166.081 374.518C166.076 374.565 166.059 374.61 166.031 374.648L165.086 376.413C164.761 376.852 163.49 379.141 163.486 379.69L166.588 387.317C166.588 387.317 168.399 386.277 167.284 381.471C166.213 376.837 170.288 373.952 170.288 373.952Z" fill="#317782"/>
<path d="M173.101 376.309L170.133 377.29C169.508 377.499 168.973 377.914 168.615 378.466C168.034 379.395 167.587 380.401 167.286 381.455C165.811 379.69 167.333 376.929 168.448 375.348C168.993 374.579 169.798 374.034 170.715 373.815L173.128 373.226L173.101 376.309Z" fill="#F7B58E"/>
<path d="M205.432 338.211C205.432 338.211 200.63 345.44 199.589 358.036C199.309 361.417 198.413 368.402 195.025 368.453C184.667 368.608 173.415 372.999 173.415 372.999L173.517 376.641C173.517 376.641 198.613 377.229 205.835 373.934C213.058 370.64 218.644 345.75 218.644 345.75L205.432 338.211Z" fill="#C3E0ED"/>
<path d="M216.842 342.445C216.842 342.445 233.807 352.531 234.145 356.314C234.482 360.097 230.696 395.11 230.696 395.11L227.141 394.58C227.141 394.58 220.181 372.077 223.612 361.55C220.04 360.82 218.528 358.852 211.217 356.524C196.491 350.533 203.904 339.288 203.904 339.288L216.842 342.445Z" fill="#DEECF5"/>
<path d="M218.987 306.285L217.462 313.972L213.448 307.053L215.483 303.798L218.987 306.285Z" fill="#F39F85"/>
<path d="M227.851 397.53C227.851 397.53 226.143 398.43 226.412 399.903C226.681 401.375 227.11 403.719 227.11 403.719H228.133L228.169 401.983C228.171 401.937 228.187 401.891 228.213 401.853C228.239 401.814 228.275 401.783 228.317 401.763C228.36 401.742 228.407 401.734 228.453 401.739C228.5 401.743 228.544 401.76 228.582 401.787L230.567 403.221C231.009 403.544 231.544 403.719 232.092 403.719H240.085C240.085 403.719 240.085 401.17 235.38 400.462C230.674 399.754 227.851 397.53 227.851 397.53Z" fill="#317782"/>
<path d="M230.174 394.694L231.192 397.653C231.407 398.275 231.826 398.807 232.38 399.161C233.314 399.733 234.324 400.171 235.38 400.462C233.633 401.954 230.855 400.462 229.265 399.356C228.491 398.818 227.939 398.018 227.71 397.104L227.102 394.694H230.174Z" fill="#F7B58E"/>
<path d="M221.103 328.345C220.983 331.892 227.587 343.153 227.587 343.153C227.587 343.153 222.005 347.804 220.146 347.804C218.489 343.184 217.354 340.735 217.354 340.735C217.354 340.735 221.224 324.795 221.103 328.345Z" fill="#317782"/>
<path d="M220.848 306.463C221.563 306.442 222.22 306.324 222.573 306.014C224.638 302.724 222.287 293.856 222.287 293.856L214.793 295.199L214.554 301.145C214.523 301.927 214.676 302.706 215.002 303.419C215.327 304.131 215.815 304.757 216.427 305.246C217.751 306.073 219.287 306.496 220.848 306.463Z" fill="#F7B58E"/>
<path d="M213.448 307.053C213.448 307.053 219.899 316.357 221.779 320.865C222.165 321.811 222.254 322.851 222.034 323.848C218.897 338.464 217.601 349.846 217.17 351.707C208.241 351.429 201.636 342.033 201.636 342.033C201.636 342.033 202.981 339.229 204.479 335.938C206.446 331.608 207.614 326.957 207.925 322.211C208.166 318.461 208.675 314.734 209.449 311.058L213.448 307.053Z" fill="#124C5F"/>
<path d="M214.55 290.861C214.55 290.861 213.946 287.953 212.292 287.135C210.194 286.111 205.449 286.407 204.102 293.842C202.755 301.276 206.48 300.466 206.612 303.463C206.743 306.459 199.405 307.499 198.94 313.464C198.475 319.43 200.195 320.634 200.195 320.634C200.195 320.634 202.155 320.099 205.71 318.626C206.814 317.292 206.722 320.085 206.914 318.822C207.01 318.198 207.233 317.601 207.571 317.067C207.908 316.534 208.352 316.076 208.874 315.722C210.333 314.721 212.754 313.005 213.178 310.58C213.59 308.215 212.515 305.573 211.525 303.755C210.502 301.856 209.959 299.736 209.941 297.58C209.919 295.65 209.996 293.548 210.388 292.634C211.196 290.741 212.3 291.885 212.3 291.885L214.55 290.861Z" fill="#212B53"/>
<path d="M222.287 293.851C222.287 293.851 220.397 288.996 214.55 291.424C213.876 291.706 213.876 291.706 212.611 292.638C208.519 298.707 214.55 302.402 214.55 302.402L216.917 297.868C216.917 297.868 219.146 298.099 220.516 296.913C221.887 295.726 222.287 293.851 222.287 293.851Z" fill="#212B53"/>
<path d="M215.344 297.635C215.758 297.243 216.534 297.311 217.075 297.805C217.617 298.3 217.722 299.027 217.309 299.427C216.895 299.827 216.119 299.753 215.576 299.259C215.033 298.764 214.929 298.037 215.344 297.635Z" fill="#F7B58E"/>
<path d="M215.484 291.088L215.078 290.62C214.933 290.451 214.73 290.342 214.509 290.315C214.289 290.287 214.066 290.343 213.884 290.471L212.58 291.38C212.438 291.479 212.339 291.629 212.305 291.798C212.271 291.968 212.303 292.144 212.396 292.29L212.611 292.636L215.484 291.088Z" fill="#FFD147"/>
<path d="M212.06 318.036C212.06 318.036 216.346 316.44 214.645 312.443C213.272 309.235 209.547 311.086 209.547 311.086C209.547 311.086 193.837 318.824 194.048 322.235C194.26 325.645 201.389 338.961 201.389 338.961L202.72 343.334C202.753 343.359 204.757 344.369 204.792 344.395C206.081 345.338 208.335 343.136 207.943 341.588L204.606 338.937C204.606 338.937 198.609 324.141 200.334 323.029C202.059 321.917 212.06 318.036 212.06 318.036Z" fill="#F7B58E"/>
<path d="M442.662 371.177L444.242 371.065C444.232 370.352 444.495 369.663 444.978 369.139C445.589 368.516 446.572 368.2 447.899 368.2C449.352 368.2 450.448 368.521 451.052 369.129C451.413 369.479 451.62 369.958 451.628 370.461L453.21 370.549C453.221 370.097 453.139 369.648 452.971 369.229C452.802 368.809 452.55 368.428 452.23 368.11C451.303 367.16 449.848 366.678 447.901 366.678C446.107 366.678 444.729 367.162 443.807 368.115C443.424 368.525 443.125 369.006 442.929 369.532C442.732 370.057 442.642 370.616 442.662 371.177Z" fill="#FFE05C"/>
<path d="M436.137 388.199H459.733V373.014H436.137V388.199Z" fill="#212B53"/>
<path d="M447.074 383.249C447.074 384.175 447.513 384.281 448.054 384.281C448.595 384.281 449.034 384.175 449.034 383.249V380.021C455.832 379.313 459.725 378.107 459.725 378.107V390.086C459.725 391.156 459.312 392.023 458.684 392.023H437.18C436.553 392.023 436.139 391.156 436.139 390.086V378.153C441.064 379.296 441.384 379.319 447.074 380.004V383.249Z" fill="#317782"/>
<path d="M437.18 369.755H458.692C459.32 369.755 459.733 370.622 459.733 371.693V377.503C456.28 378.637 452.676 379.249 449.042 379.319V378.535C449.042 377.607 448.601 377.503 448.062 377.503C447.523 377.503 447.081 377.607 447.081 378.535V379.319C440.643 379.153 436.147 377.505 436.147 377.505V371.693C436.139 370.622 436.553 369.755 437.18 369.755Z" fill="#124C5F"/>
<path d="M446.766 381.857V380.861C446.766 380.747 446.811 380.639 446.891 380.559C446.971 380.479 447.08 380.434 447.193 380.433H448.899C449.012 380.434 449.12 380.479 449.2 380.559C449.28 380.639 449.326 380.747 449.326 380.861V381.857C449.326 381.97 449.28 382.079 449.2 382.159C449.12 382.239 449.012 382.284 448.899 382.284H447.193C447.08 382.284 446.971 382.239 446.891 382.159C446.811 382.079 446.766 381.97 446.766 381.857ZM447.193 380.555C447.112 380.555 447.034 380.587 446.977 380.644C446.919 380.702 446.887 380.779 446.887 380.861V381.857C446.887 381.938 446.919 382.016 446.977 382.073C447.034 382.131 447.112 382.163 447.193 382.163H448.899C448.98 382.163 449.058 382.131 449.115 382.073C449.172 382.016 449.205 381.938 449.205 381.857V380.861C449.205 380.779 449.172 380.702 449.115 380.644C449.058 380.587 448.98 380.555 448.899 380.555H447.193Z" fill="white"/>
<path d="M447.936 381.245C447.937 381.259 447.94 381.272 447.946 381.285C447.952 381.298 447.96 381.309 447.97 381.319C447.98 381.328 447.992 381.335 448.005 381.34C448.018 381.345 448.032 381.347 448.046 381.347C448.06 381.347 448.074 381.345 448.087 381.34C448.1 381.335 448.112 381.328 448.122 381.319C448.132 381.309 448.141 381.298 448.146 381.285C448.152 381.272 448.155 381.259 448.156 381.245V379.853C448.155 379.839 448.152 379.825 448.146 379.812C448.141 379.8 448.132 379.788 448.122 379.779C448.112 379.769 448.1 379.762 448.087 379.757C448.074 379.752 448.06 379.75 448.046 379.751C448.032 379.75 448.018 379.752 448.005 379.757C447.992 379.762 447.98 379.769 447.97 379.779C447.96 379.788 447.952 379.8 447.946 379.812C447.94 379.825 447.937 379.839 447.936 379.853V381.245Z" fill="white"/>
<path d="M424.026 342.09L432.804 339.694L433.677 348.126L446.421 361.105L443.942 362.907C443.942 362.907 430.467 356.778 427.571 352.794C424.675 348.809 424.026 342.09 424.026 342.09Z" fill="#F7B58E"/>
<path d="M446.43 361.112L449.052 363.595C449.474 363.991 449.77 364.503 449.905 365.066C450.157 366.131 450.403 367.829 449.585 368.423C448.36 369.314 444.662 368.255 444.662 368.255L443.952 362.915L446.43 361.112Z" fill="#F7B58E"/>
<path d="M426.863 331.387L429.02 328.214L432.865 330.21L431.561 334.471C431.524 334.492 431.486 334.509 431.445 334.522C430.179 333.139 428.611 332.066 426.863 331.387Z" fill="#F39F85"/>
<path d="M429.467 320.546L428.393 326.443C428.981 326.555 429.177 327.257 428.932 327.776C428.963 327.926 428.963 328.08 428.932 328.229C429.539 328.948 430.287 329.535 431.131 329.952C431.974 330.369 432.894 330.609 433.833 330.655C437.684 330.814 437.131 323.164 437.131 323.164L429.467 320.546Z" fill="#F7B58E"/>
<path d="M426.587 324.487C426.661 324.054 426.291 323.013 426.032 322.656C424.368 320.359 426.544 319.481 427.307 319.21C428.15 318.912 428.316 317.549 429.44 317.029C431.153 316.245 432.273 317.737 433.241 317.783C434.21 317.828 435.073 316.729 436.269 317.7C437.464 318.671 437.066 319.693 437.394 320.25C437.721 320.807 438.806 319.75 439.79 321.467C441.288 324.083 437.149 324.082 437.149 324.082C437.149 324.082 434.796 324.474 432.212 322.683C432.044 322.558 431.839 322.491 431.629 322.493C431.419 322.495 431.215 322.566 431.049 322.695C430.153 323.464 429.004 328.323 429.004 328.323L428.242 327.313C428.242 327.313 426.256 326.484 426.587 324.487Z" fill="#212B53"/>
<path d="M428.687 325.484C428.715 325.664 428.796 325.831 428.92 325.965C429.043 326.099 429.203 326.193 429.38 326.235C429.557 326.278 429.743 326.267 429.914 326.204C430.084 326.141 430.233 326.028 430.339 325.881C430.446 325.734 430.507 325.558 430.514 325.376C430.521 325.194 430.474 325.014 430.379 324.859C430.283 324.704 430.144 324.581 429.979 324.505C429.813 324.429 429.629 324.404 429.45 324.433C429.33 324.452 429.216 324.494 429.113 324.557C429.011 324.62 428.921 324.703 428.85 324.8C428.78 324.898 428.729 325.008 428.701 325.126C428.673 325.243 428.668 325.365 428.687 325.484Z" fill="#F7B58E"/>
<path d="M431.586 334.067C434.176 344.412 430.998 371.043 430.998 371.043L409.531 371.265C409.531 371.265 408.812 335.148 426.363 330.916C427.474 330.641 428.648 330.819 429.627 331.41C430.607 332.001 431.312 332.957 431.586 334.067Z" fill="#FFEE94"/>
<path d="M389.028 404.551C389.028 404.551 387.263 406.457 386.155 410.799C385.912 411.756 386.238 412.787 384.659 412.787V407.516L385.418 403.133H384.659V400.764C384.659 400.764 388.532 400.105 389.028 401.487V404.551Z" fill="#212B53"/>
<path d="M391.808 404.086L389.027 404.551C388.734 404.128 388.569 403.629 388.552 403.115C388.535 402.6 388.667 402.092 388.931 401.65L389.027 401.487L391.808 400.801V404.086Z" fill="#F7B58E"/>
<path d="M425.256 425.136C425.256 425.136 425.267 428.091 431.206 429.866C432.424 430.231 432.028 430.592 432.255 431.103H425.424L422.748 428.095L421.917 428.811L419.988 426.915C419.988 426.915 420.887 424.169 422.356 424.147L425.256 425.136Z" fill="#212B53"/>
<path d="M426.365 422.577L425.256 425.138C424.761 425.279 424.236 425.274 423.743 425.124C423.251 424.974 422.812 424.685 422.479 424.293L422.356 424.149L423.254 421.516L426.365 422.577Z" fill="#F7B58E"/>
<path d="M409.259 370.608C409.259 370.608 409.516 380.884 412.876 388.53C413.122 389.08 413.242 389.677 413.226 390.278C413.211 390.879 413.061 391.47 412.787 392.005C412.514 392.541 412.124 393.009 411.646 393.374C411.168 393.739 410.614 393.993 410.026 394.116C397.913 396.653 391.076 400.728 391.076 400.728V404.896L419.333 401.028C421.538 400.726 423.578 399.692 425.125 398.092C426.672 396.492 427.637 394.418 427.865 392.204L428.767 383.459L409.259 370.608Z" fill="#124C5F"/>
<path d="M429.608 370.853C429.608 370.853 439.372 389.176 439.372 394.859C439.372 400.542 426.236 422.706 426.236 422.706H422.476C422.476 422.706 423.142 408.661 425.687 397.016C425.937 395.894 425.893 394.726 425.557 393.626C425.222 392.526 424.607 391.532 423.774 390.741C415.782 383.241 409.451 370.851 409.451 370.851L429.608 370.853Z" fill="#317782"/>
<path d="M416.39 341.996L424.128 346.783L418.552 353.176L417.756 371.357L414.749 370.769C414.749 370.769 410.043 356.73 410.981 351.894C411.918 347.058 416.39 341.996 416.39 341.996Z" fill="#F7B58E"/>
<path d="M417.756 371.357L417.729 374.966C417.727 375.545 417.555 376.111 417.235 376.593C416.629 377.505 415.555 378.841 414.563 378.649C413.076 378.36 411.33 374.923 411.33 374.923L414.749 370.763L417.756 371.357Z" fill="#F7B58E"/>
<path d="M438.368 417.411C426.877 417.195 379.473 413.738 367.086 413.94C364.425 413.965 361.867 414.974 359.904 416.772C357.438 419.068 355.591 422.669 360.008 427.13C369.811 437.008 401.966 434.72 401.966 434.72L402.25 437.755L363.345 435.686L322.445 405.278C322.445 405.278 316.44 400.34 312.291 405.462C308.142 410.585 317.977 421.231 317.977 421.231L360.13 458.688C363.38 461.576 367.566 463.188 371.913 463.224L416.594 463.593C418.381 463.607 420.089 464.327 421.347 465.597C422.606 466.866 423.311 468.581 423.311 470.368V488.606H467.817V442.682C467.809 439.157 466.935 435.689 465.27 432.582C463.606 429.475 461.204 426.826 458.274 424.867C450.536 419.664 444.107 418.188 438.368 417.411Z" fill="#F7D0AD"/>
<path d="M476.079 479.085H414.508V590.737H476.079V479.085Z" fill="#124C5F"/>
<path d="M529.147 318.367C529.147 318.367 527.516 313.613 524.81 313.955C521.352 314.392 523.634 319.093 523.634 319.093C523.634 319.093 529.155 332.349 537.44 333.546C542.124 334.22 550.241 332.671 553.047 332.083C553.713 331.943 554.294 332.034 554.972 332.118L555.898 332.195C556.364 332.251 557.246 331.93 557.562 331.581C558.05 331.041 559.152 329.571 559.313 328.714C559.576 327.323 556.649 329.302 555.266 330.006C555.246 330.016 555.223 330.021 555.2 330.019C555.177 330.017 555.155 330.008 555.137 329.994C555.119 329.98 555.105 329.962 555.097 329.94C555.089 329.918 555.087 329.895 555.092 329.873L555.772 328.902C555.857 328.75 555.903 328.58 555.905 328.406C555.947 327.804 555.454 328.106 555.1 328.37C555.057 328.404 555.011 328.433 554.962 328.459L552.919 329.502C552.221 329.859 551.431 329.996 550.653 329.894C547.547 329.488 539.352 328.404 537.74 328.047C535.342 327.511 529.147 318.367 529.147 318.367Z" fill="#6F4A3A"/>
<path d="M510.752 397.222C510.752 397.222 509.037 398.106 509.292 399.575C509.547 401.044 509.954 403.397 509.954 403.397H510.978L511.029 401.664C511.031 401.617 511.046 401.571 511.073 401.532C511.099 401.493 511.135 401.461 511.178 401.441C511.221 401.421 511.268 401.413 511.315 401.418C511.362 401.422 511.407 401.44 511.444 401.468L512.962 402.495C513.403 402.821 513.98 403.337 514.53 403.34L522.81 403.401C522.81 403.401 522.222 400.93 518.265 400.213C513.589 399.377 510.752 397.222 510.752 397.222Z" fill="#317782"/>
<path d="M513.68 394.337L513.817 397.298C514.026 397.922 514.441 398.457 514.993 398.816C515.922 399.396 516.928 399.843 517.981 400.144C516.217 401.62 513.456 400.099 511.876 398.983C511.107 398.438 510.868 398.059 510.646 397.143L510.513 394.308L513.68 394.337Z" fill="#6F4A3A"/>
<path d="M515.877 339.427C515.877 339.427 514.323 342.957 513.274 355.545C512.993 358.926 514.076 368.831 512.607 373.681C511.021 378.919 510.084 394.861 510.084 394.861L513.909 395.071L519.909 375.495C520.048 375.048 520.197 374.603 520.359 374.162L529.647 349.011L515.877 339.427Z" fill="#C3E0ED"/>
<path d="M529.147 307.506L527.621 315.192L523.608 308.275L525.643 305.018L529.147 307.506Z" fill="#6F4A3A"/>
<path d="M537.611 397.083C537.611 397.083 535.903 397.983 536.172 399.458C536.44 400.932 536.87 403.272 536.87 403.272H537.893L537.928 401.536C537.93 401.489 537.945 401.444 537.971 401.404C537.997 401.365 538.034 401.334 538.076 401.314C538.119 401.293 538.166 401.285 538.213 401.29C538.26 401.295 538.304 401.312 538.342 401.34L540.326 402.782C540.769 403.105 541.303 403.28 541.852 403.28H549.845C549.845 403.28 549.845 400.73 545.14 400.022C540.434 399.314 537.611 397.083 537.611 397.083Z" fill="#317782"/>
<path d="M539.952 394.239L540.969 397.198C541.183 397.82 541.601 398.352 542.156 398.706C543.09 399.278 544.101 399.715 545.157 400.007C543.41 401.499 540.63 400.007 539.04 398.9C538.268 398.362 537.716 397.563 537.487 396.649L536.88 394.239H539.952Z" fill="#6F4A3A"/>
<path d="M531.262 329.567C531.143 333.114 537.746 344.371 537.746 344.371C537.746 344.371 531.97 349.023 530.111 349.023C528.455 344.402 527.516 341.951 527.516 341.951C527.516 341.951 531.384 326.017 531.262 329.567Z" fill="#317782"/>
<path d="M528.621 344.575C528.621 344.575 532.305 351.295 534.462 362.96C535.152 366.686 540.591 395.08 540.591 395.08L536.397 394.704L524.706 366.661C524.706 366.661 523.449 362.054 517.742 359.452C508.882 354.194 514.046 340.502 514.046 340.502L528.621 344.575Z" fill="#DEECF5"/>
<path d="M531.007 307.685C531.723 307.663 532.38 307.546 532.733 307.236C534.797 303.945 532.447 295.077 532.447 295.077L524.953 296.42L524.714 302.363C524.683 303.145 524.836 303.924 525.161 304.636C525.487 305.348 525.975 305.974 526.586 306.463C527.91 307.292 529.446 307.717 531.007 307.685Z" fill="#835A46"/>
<path d="M523.608 308.275C523.608 308.275 530.059 317.579 531.939 322.085C532.325 323.031 532.414 324.072 532.194 325.07C529.057 339.686 527.761 351.068 527.329 352.929C518.401 352.651 511.795 343.255 511.795 343.255C511.795 343.255 513.14 340.451 514.64 337.16C516.606 332.829 517.773 328.179 518.085 323.433C518.509 317.071 520.583 312.796 520.583 312.796L523.608 308.275Z" fill="#124C5F"/>
<path d="M524.989 304.2C524.312 305.23 523.826 305.392 523.479 305.406C522.371 305.449 522.126 304.655 522.126 304.655C522.126 304.655 521.981 304.804 521.901 304.906C521.438 305.494 519.703 305.379 518.948 304.606C517.672 303.298 518.138 302.172 518.138 302.172C518.016 302.084 517.884 302.01 517.746 301.951C516.987 301.568 516.187 300.635 516.195 299.748C516.207 298.346 517.095 297.872 517.095 297.872C517.095 297.872 516.809 297.511 516.544 297.244C515.66 296.356 515.74 295.087 515.744 294.967C515.733 294.466 515.862 293.971 516.119 293.54C517.195 291.849 518.066 292.087 518.122 292.012C518.23 291.871 518.156 291.255 518.548 290.335C518.797 289.741 519.25 289.254 519.824 288.963C520.532 288.612 521.293 288.637 521.601 288.462C522.006 288.231 521.865 288.157 522.336 287.678C522.546 287.461 522.802 287.295 523.085 287.191C523.368 287.087 523.671 287.048 523.971 287.078C524.741 287.194 525.114 287.509 525.573 287.845C525.649 287.9 525.945 287.453 526.565 287.184C526.807 287.092 527.068 287.055 527.326 287.077C527.585 287.099 527.835 287.178 528.059 287.309C528.547 287.611 528.686 288.006 529.184 288.26C529.52 288.433 529.716 288.213 530.094 288.186C530.864 288.106 531.641 288.269 532.313 288.653C533.268 289.251 533.741 290.714 533.856 291.69C533.923 292.251 534.348 292.026 534.592 292.292C535.18 292.94 535.092 294.128 534.717 294.946C534.211 296.046 533.017 296.383 532.757 296.548C532.596 296.652 531.28 299.778 527.8 298.376C527.618 298.295 528.333 300.174 524.989 304.2Z" fill="#09252B"/>
<path d="M524.659 301.631C525.235 301.641 525.731 302.243 525.765 302.977C525.798 303.71 525.359 304.298 524.784 304.288C524.21 304.279 523.714 303.677 523.681 302.943C523.647 302.21 524.071 301.621 524.659 301.631Z" fill="#835A46"/>
<path d="M550.174 349.503C550.212 351.268 550.99 361.513 559.277 368.429C562.522 371.084 566.403 372.845 570.537 373.538C577.837 374.754 586.418 372.661 592.463 366.478C599.451 359.318 601.788 347.948 597.117 338.388C592.428 328.778 583.915 324.627 575.055 324.176V349.219" fill="#317782"/>
<path d="M541.009 344.136L593.247 392.451" stroke="#124C5F" stroke-width="2.58818" stroke-miterlimit="10"/>
<path d="M561.862 392L575.945 376.495" stroke="#124C5F" stroke-width="2.58818" stroke-miterlimit="10"/>
<path d="M557.805 403.872C561.803 403.872 565.044 400.63 565.044 396.632C565.044 392.633 561.803 389.391 557.805 389.391C553.807 389.391 550.567 392.633 550.567 396.632C550.567 400.63 553.807 403.872 557.805 403.872Z" fill="#0F414C"/>
<path d="M557.85 401.78C560.693 401.78 562.997 399.475 562.997 396.632C562.997 393.789 560.693 391.484 557.85 391.484C555.008 391.484 552.704 393.789 552.704 396.632C552.704 399.475 555.008 401.78 557.85 401.78Z" fill="#FAFBFB"/>
<path d="M558.001 398.438C559.091 398.438 559.974 397.554 559.974 396.465C559.974 395.375 559.091 394.492 558.001 394.492C556.912 394.492 556.029 395.375 556.029 396.465C556.029 397.554 556.912 398.438 558.001 398.438Z" fill="#C7E7E1"/>
<path d="M597.784 404.068C601.782 404.068 605.023 400.826 605.023 396.828C605.023 392.829 601.782 389.587 597.784 389.587C593.786 389.587 590.546 392.829 590.546 396.828C590.546 400.826 593.786 404.068 597.784 404.068Z" fill="#0F414C"/>
<path d="M597.784 401.976C600.626 401.976 602.931 399.671 602.931 396.828C602.931 393.985 600.626 391.68 597.784 391.68C594.942 391.68 592.637 393.985 592.637 396.828C592.637 399.671 594.942 401.976 597.784 401.976Z" fill="#FAFBFB"/>
<path d="M597.784 398.801C598.873 398.801 599.757 397.918 599.757 396.828C599.757 395.738 598.873 394.855 597.784 394.855C596.695 394.855 595.812 395.738 595.812 396.828C595.812 397.918 596.695 398.801 597.784 398.801Z" fill="#C7E7E1"/>
<path d="M524.751 323.772C524.751 323.772 526.241 319.457 522.075 318.222C518.73 317.241 517.793 321.291 517.793 321.291C517.793 321.291 513.787 338.352 516.554 340.345C519.32 342.337 534.133 345.31 534.133 345.31L537.195 345.718C537.238 345.718 540.107 344.987 540.136 344.961C546.069 340.461 541.042 342.559 540.544 342.608L537.315 343.196L536.15 342.822C536.15 342.822 520.918 338.048 521.152 336.015C521.385 333.981 524.751 323.772 524.751 323.772Z" fill="#6F4A3A"/>
</g>
<path d="M112.346 214.909H277.4C284.876 214.909 290.928 208.416 289.948 201.005C289.589 198.318 288.321 195.594 285.497 193.192C279.851 188.384 273.187 188.878 268.332 190.276C267.592 190.493 266.815 190.554 266.05 190.454C265.286 190.355 264.55 190.097 263.89 189.698C263.23 189.298 262.661 188.766 262.218 188.135C261.775 187.503 261.468 186.787 261.317 186.03C260.207 180.671 256.698 173.575 246.399 169.402C236.38 165.343 230.043 171.542 226.377 177.911C225.169 180.008 221.958 179.692 221.23 177.388C218.044 167.335 206.979 154 170.613 154C124.309 154 129.509 178.649 133.646 188.85C133.806 189.247 133.855 189.679 133.788 190.102C133.721 190.524 133.54 190.92 133.265 191.247C132.99 191.574 132.631 191.821 132.226 191.959C131.822 192.097 131.387 192.123 130.969 192.033C123.837 190.507 110.579 188.527 104.642 193.192C104.432 193.355 104.231 193.525 104.032 193.698C95.6724 201.04 101.221 214.909 112.346 214.909Z" fill="url(#paint1_linear_357_13)"/>
<defs>
<linearGradient id="paint0_linear_357_13" x1="622.007" y1="290.133" x2="498.41" y2="295.126" gradientUnits="userSpaceOnUse">
<stop stop-color="#DFEFEA"/>
<stop offset="1" stop-color="#BFE3EE"/>
</linearGradient>
<linearGradient id="paint1_linear_357_13" x1="99.9995" y1="184.456" x2="290.048" y2="184.456" gradientUnits="userSpaceOnUse">
<stop stop-color="#DFEFEA"/>
<stop offset="1" stop-color="#BFE3EE"/>
</linearGradient>
</defs>
</svg>
