<svg width="1450" height="723" viewBox="-100 0 1400 763" fill="none" xmlns="http://www.w3.org/2000/svg">
<path d="M1194.5 3.0003C782.968 49.9045 -290.542 2.55704 -221 139C-151.458 275.443 -62.9999 167 -62.9999 167L-124.247 588.53C-124.247 588.53 174.946 724.329 176.995 609.803C179.044 495.276 745.052 730.371 1052.98 751.852C1360.91 773.332 1516.98 486.15 1422.65 507.423C1328.33 528.695 1606.03 -43.9039 1194.5 3.0003Z" fill="#C7E7E1" fill-opacity="0.27"/>
<path d="M832.059 584.043C831.713 584.017 831.365 584.102 831.08 584.281C830.796 584.459 830.596 584.719 830.52 585.01C825.973 586.208 823.312 590.139 818.645 591.147L818.263 591.122L818.112 591.416C815.623 591.785 814.242 594.114 811.588 594.289L811.143 594.237L810.888 594.596C808.864 594.806 807.745 596.738 805.582 596.736L805.163 596.667L804.942 596.972C803.389 597.218 802.333 598.612 800.638 598.549L800.175 598.475L799.927 598.797C798.364 598.983 797.319 600.437 795.654 600.221C794.097 600.038 793.306 601.697 791.701 601.411L791.353 601.331L791.04 601.528C790.022 601.989 788.919 602.288 787.787 602.411C786.279 602.097 785.465 603.87 783.891 603.432C782.42 603.162 781.465 604.957 779.974 604.334C779.015 604.572 778.175 605.232 777.075 604.928C775.975 604.623 775.281 605.69 774.236 605.45C773.25 605.373 772.413 606.131 771.405 605.935C770.426 605.82 769.582 606.616 768.564 606.36C767.577 606.283 766.733 607.079 765.711 606.725C764.689 606.372 763.92 607.585 762.9 606.998C762.3 607.375 761.7 607.188 761.095 607.136C760.158 606.929 759.273 607.817 758.318 607.355C757.749 607.451 757.169 607.468 756.6 607.406C755.703 607.106 754.829 608.054 753.916 607.499C753.342 607.86 752.705 607.629 752.142 607.485L750.447 607.422L750.29 607.52C749.428 607.166 748.459 608.239 747.611 607.478C746.959 607.888 746.388 607.781 745.8 607.42C745.506 607.526 745.188 607.569 744.875 607.546C744.562 607.523 744.263 607.434 744.005 607.287C743.392 607.437 742.742 607.381 742.191 607.132C741.574 607.22 740.946 607.153 740.385 606.939C739.765 607.036 739.132 606.955 738.587 606.708C738.283 606.771 737.969 606.782 737.665 606.74C737.36 606.697 737.071 606.602 736.815 606.461C736.508 606.558 736.178 606.581 735.862 606.527C735.547 606.473 735.259 606.343 735.032 606.154C734.733 606.269 734.401 606.298 734.088 606.236C733.775 606.175 733.498 606.026 733.301 605.814L733.195 606.113L733.256 605.809C732.199 606.307 731.736 605.104 730.792 605.266L730.47 605.169L728.917 604.85C728.307 604.87 727.713 604.718 727.228 604.418C726.12 604.716 725.678 603.632 724.72 603.636L724.61 603.507C724.028 603.508 723.468 603.346 723.017 603.047C721.839 603.356 721.408 602.332 720.514 602.129C719.401 602.232 718.928 601.3 718.016 601.076C716.81 601.071 716.233 600.205 715.342 599.769C715.343 599.689 715.322 599.611 715.281 599.54C715.24 599.469 715.18 599.408 715.105 599.362C715.03 599.315 714.944 599.284 714.851 599.272C714.759 599.259 714.664 599.265 714.573 599.289C713.584 599.114 713.096 598.259 712.155 597.953C712.149 597.862 712.121 597.773 712.073 597.693C712.024 597.612 711.957 597.541 711.875 597.484C711.793 597.427 711.697 597.385 711.594 597.361C711.491 597.337 711.383 597.331 711.276 597.344C709.849 597.079 709.692 595.483 708.187 595.267L707.276 594.479C703.387 591.156 700.134 587.334 697.627 583.142L696.599 581.464C696.497 580.167 694.869 579.431 695.037 578.029L695.166 577.616L694.752 577.412C694.288 576.603 694.002 575.726 693.908 574.82L693.742 574.626C693.922 573.849 693.273 573.227 693.241 572.484C693.292 572.405 693.325 572.32 693.336 572.232C693.348 572.144 693.338 572.055 693.308 571.971C693.278 571.888 693.229 571.811 693.162 571.745C693.095 571.679 693.013 571.626 692.92 571.589C692.464 570.348 692.139 569.025 690.379 568.604C689.831 568.948 689.194 568.718 688.582 568.704C687.678 568.442 686.785 569.369 685.839 568.868C685.264 568.988 684.671 569.011 684.094 568.935C683.19 568.673 682.297 569.6 681.384 569.045C681.101 569.177 680.785 569.248 680.466 569.251C680.147 569.255 679.835 569.19 679.558 569.064L677.837 569.017L677.68 569.115C676.836 568.782 675.876 569.818 675.019 569.094C674.753 569.27 674.427 569.365 674.095 569.361C673.764 569.358 673.448 569.257 673.201 569.075C672.599 569.227 671.959 569.194 671.398 568.98C670.825 568.977 670.254 568.936 669.692 568.857C665.03 568.972 660.397 568.506 655.94 567.473L655.61 567.415C655.145 567.27 654.651 567.198 654.15 567.204L653.864 567.151L652.278 566.887C651.688 566.856 651.111 566.749 650.565 566.568C649.885 566.664 649.266 566.688 648.842 566.19L648.793 566.132L648.706 566.077C647.601 565.816 647.219 565.318 646.23 565.474L645.89 565.357L644.337 565.038C643.736 565.064 643.148 564.919 642.666 564.627C641.55 564.963 641.116 563.841 640.151 563.883L640.041 563.754C639.458 563.736 638.899 563.582 638.422 563.31C637.34 563.592 636.872 562.524 635.922 562.49C635.566 562.51 635.211 562.464 634.883 562.354C634.555 562.245 634.262 562.076 634.023 561.858L633.746 561.534L633.242 561.552C632.697 561.447 632.171 561.287 631.675 561.076C630.52 561.271 630.081 560.285 629.162 560.099C628.074 560.185 627.601 559.253 626.664 559.046C625.494 559.083 624.97 558.184 624.063 557.825C624.05 557.738 624.016 557.654 623.963 557.58C623.911 557.505 623.84 557.441 623.757 557.391C623.673 557.341 623.578 557.306 623.477 557.289C623.375 557.272 623.27 557.273 623.168 557.291C622.353 557.04 621.861 556.32 620.945 556.231L620.779 556.037C619.763 555.878 619.216 555.094 618.335 554.717C618.33 554.63 618.304 554.545 618.259 554.468C618.213 554.391 618.148 554.324 618.068 554.27C617.989 554.217 617.897 554.179 617.797 554.158C617.698 554.138 617.594 554.135 617.492 554.151C616.492 553.917 615.97 553.115 615.056 552.794C615.057 552.704 615.036 552.615 614.994 552.534C614.951 552.453 614.888 552.381 614.809 552.324C614.729 552.266 614.636 552.224 614.534 552.201C614.433 552.178 614.326 552.174 614.221 552.189C612.779 552 612.656 550.351 611.135 550.211L610.117 549.39C608.723 549.07 608.533 547.529 607.098 547.302L606.116 546.525C604.639 546.059 604.151 544.639 602.759 544.086C602.68 543.784 602.508 543.507 602.262 543.284C602.015 543.06 601.702 542.897 601.354 542.811C599.509 542.243 599.199 540.28 597.407 539.679C597.286 539.351 597.083 539.05 596.812 538.796C596.541 538.543 596.209 538.343 595.836 538.21C593.312 537.173 592.933 534.422 590.427 533.407C590.314 533.062 590.115 532.744 589.844 532.474C589.572 532.204 589.235 531.988 588.853 531.84C582.949 526.197 577.726 520.061 573.257 513.516C572.984 512.48 572.335 511.554 571.401 510.864C571.169 508.851 568.496 507.875 568.421 505.763C568.47 505.684 568.497 505.597 568.5 505.509C568.502 505.42 568.481 505.333 568.437 505.255C568.394 505.176 568.329 505.108 568.248 505.055C568.166 505.002 568.071 504.967 567.97 504.951C567.956 503.665 566.294 502.982 566.5 501.624C566.548 501.548 566.575 501.464 566.58 501.379C566.585 501.293 566.567 501.209 566.528 501.131C566.489 501.054 566.429 500.985 566.354 500.931C566.279 500.877 566.19 500.838 566.093 500.817C565.943 499.982 565.265 499.279 565.237 498.4C565.32 498.224 565.325 498.031 565.251 497.857C565.177 497.683 565.029 497.541 564.835 497.457C564.774 496.632 564.017 495.979 564.175 495.082L564.01 494.888C564.215 494.094 563.566 493.473 563.534 492.729C563.595 492.661 563.637 492.582 563.656 492.499C563.676 492.416 563.673 492.331 563.647 492.251C563.621 492.171 563.574 492.097 563.508 492.036C563.442 491.975 563.36 491.928 563.269 491.9C563.144 491.048 562.173 490.33 562.825 489.356C562.662 488.902 562.634 488.417 562.745 487.944L562.692 487.646C563.101 486.857 562.07 486.21 562.525 485.427C564.812 482.328 566.526 482.412 567.323 486.03C567.763 488.393 568.019 490.784 568.088 493.187C571.343 502.652 576.504 511.516 583.346 519.395C590.006 526.69 597.225 533.6 604.956 540.081C608.058 542.062 610.993 544.222 613.742 546.546C617.107 548.382 620.199 550.556 623.512 552.426C627.753 554.209 631.901 556.118 636.094 557.799C637.645 557.819 639.12 558.302 640.26 559.165C641.8 559.109 643.293 559.526 644.464 560.341C646.065 560.199 647.332 561.029 648.762 561.392C649.371 561.361 649.972 561.479 650.493 561.732C650.794 561.653 651.111 561.645 651.412 561.708C651.712 561.771 651.983 561.902 652.198 562.088C658.213 562.757 664.179 563.556 670.128 564.1L670.215 563.779L670.154 564.083C670.437 563.945 670.757 563.878 671.078 563.888C671.399 563.898 671.706 563.986 671.964 564.141C674.102 563.841 676.272 563.859 678.377 564.194C678.925 563.85 679.561 564.08 680.177 564.192C681.077 564.356 682.004 563.375 682.905 564.104L682.893 563.713L682.949 564.109C683.576 563.715 684.146 563.821 684.772 563.992C685.725 564.124 686.626 563.159 687.579 563.855L687.54 563.481L687.605 563.839C688.607 563.569 689.456 562.976 689.965 562.189C689.883 561.715 689.904 561.229 690.026 560.756L689.879 560.583C690.281 559.832 689.15 559.115 689.897 558.346L690.748 558.874L691.074 558.835C690.632 558.316 690.847 557.815 691.177 557.309C691.139 556.801 691.204 556.288 691.369 555.793C691.401 555.319 691.466 554.846 691.564 554.376C691.454 552.344 691.859 550.3 692.75 548.383L692.881 548.301C692.973 547.844 693.109 547.393 693.227 546.92C693.245 546.416 693.377 545.916 693.616 545.448C693.548 545.187 693.557 544.914 693.642 544.653C693.726 544.391 693.884 544.149 694.101 543.947C693.995 542.553 695.041 541.43 695.499 540.179C695.517 539.636 695.535 539.093 696.091 538.711C695.733 537.773 697.013 537.301 697.104 536.513C697.167 535.976 697.141 535.427 697.759 535.072C697.346 534.069 698.581 533.592 698.868 532.847C699.155 532.102 699.924 531.452 700.093 530.616C700.136 529.725 701.274 529.275 701.399 528.433C701.486 527.548 702.58 527.092 702.794 526.261C702.907 525.359 703.868 524.888 704.296 524.121C704.179 522.667 706.4 522.499 706.571 521.196C706.707 519.849 708.867 519.753 709.017 518.33C709.398 516.895 711.368 516.387 711.936 515.266L712.367 515.161L712.444 514.781C713.196 512.747 716.148 512.452 716.98 510.7C720.035 507.534 723.969 505.061 728.405 503.517C730.781 503.485 731.856 500.75 734.451 501.211C735.392 500.952 736.234 500.389 737.31 500.476C738.743 500.937 739.71 498.968 741.137 499.797C742.605 499.207 744.255 499.076 745.789 499.43C746.363 499.069 747.018 499.321 747.607 499.449C750.049 499.106 752.529 499.432 754.686 500.379C757.978 501.039 760.998 502.391 763.473 504.314C765.948 506.236 767.8 508.668 768.863 511.391C768.751 512.624 770.502 513.316 770.037 514.605C770.01 515.419 770.881 516.067 770.501 516.937C770.365 517.72 771.433 518.41 770.671 519.255C770.806 519.484 770.876 519.738 770.875 519.998C770.874 520.258 770.802 520.517 770.665 520.753C770.959 523.336 770.429 525.964 769.13 528.36C769.175 528.929 769.156 529.472 768.575 529.871C768.977 530.814 767.634 531.26 767.58 532.09C767.23 533.395 766.538 534.625 765.556 535.688C766.003 537.2 763.56 537.341 763.485 538.617C763.368 539.986 761.3 540.19 761.083 541.489C760.667 543.211 758.083 543.375 757.549 545.005C751.904 549.7 745.527 553.709 738.611 556.912L738.088 556.908L737.781 557.301C735.312 557.458 734.134 560.025 731.496 559.89C729.481 559.829 728.557 562.037 726.418 561.688C724.901 561.646 724.045 563.18 722.476 562.937C720.953 562.7 720.155 564.397 718.584 564.056C717.068 563.781 716.236 565.532 714.669 565.056C713.678 565.115 712.839 565.775 711.807 565.693C710.367 565.27 709.46 567.169 707.958 566.486C707.006 566.685 706.159 567.384 705.093 567.025C704.138 567.127 703.284 567.863 702.243 567.488C701.203 567.113 700.434 568.326 699.402 567.913C695.351 568.799 697.204 571.353 697.117 573.368C697.038 574.546 699.009 575.167 698.209 576.533C698.232 578.113 700.71 578.813 700.093 580.629C705.123 589.178 713.621 595.827 724.073 599.394L724.165 599.502C725.717 599.459 727.216 599.899 728.38 600.738C730.505 600.873 732.572 601.327 734.487 602.079C735.102 602.011 735.721 602.111 736.252 602.365C736.553 602.308 736.862 602.303 737.161 602.348C737.461 602.393 737.745 602.488 737.998 602.628C738.299 602.539 738.619 602.515 738.929 602.559C739.238 602.602 739.528 602.711 739.77 602.876C740.06 602.776 740.373 602.743 740.678 602.779C740.983 602.814 741.268 602.918 741.505 603.08C741.789 602.937 742.116 602.873 742.439 602.897C742.761 602.921 743.063 603.031 743.301 603.213C743.596 603.119 743.91 603.079 744.221 603.096C744.532 603.112 744.833 603.185 745.104 603.309C747.249 603.051 749.418 603.102 751.519 603.46C752.093 603.099 752.711 603.308 753.301 603.436C754.83 603.266 756.369 603.187 757.904 603.198C758.864 603.292 759.758 602.365 760.726 602.985C762.229 602.535 763.817 602.363 765.383 602.482C766.362 602.597 767.206 601.801 768.217 602.095C769.228 602.389 770.047 601.376 771.066 601.632C772.085 601.888 772.889 600.951 773.923 601.131C775.353 601.494 776.231 599.514 777.792 600.359C778.729 600.002 779.487 599.293 780.687 599.668C782.156 599.841 783.113 598.143 784.646 598.673C786.053 598.586 786.925 596.975 788.576 597.598C789.98 597.412 790.847 595.938 792.492 596.365C793.998 596.347 794.892 594.856 796.467 595.061L796.842 595.124L797.037 594.836C798.642 594.557 799.645 593.196 801.43 593.269L801.893 593.343L802.122 593C804.153 592.752 805.317 590.826 807.499 590.849L807.899 590.896L808.102 590.569C810.959 590.068 812.524 587.39 815.568 587.203C820.681 585.683 823.771 581.316 829.068 580.011C831.915 579.002 834.443 577.412 836.424 575.387C839.59 571.437 845.337 570.049 848.731 566.321L849.225 566.243L849.361 565.792C850.405 563.442 853.936 563.215 855.06 560.914C855.668 558.805 858.765 558.585 859.523 556.747C859.902 554.981 862.549 554.845 863.064 553.192C863.382 551.73 865.415 551.249 865.938 550.123L866.303 549.894L866.362 549.492C866.578 548.193 868.657 548.049 868.756 546.658C868.977 545.789 869.856 545.269 870.428 544.577C870.167 543.048 872.458 542.869 872.685 541.631C872.725 540.642 873.667 540.15 874.24 539.458C873.901 537.977 876.299 537.831 876.311 536.528C876.462 535.67 877.53 535.231 877.725 534.378C877.794 533.471 878.888 533.015 879.101 532.184C879.126 531.272 880.238 530.838 880.433 529.985C880.45 529.111 881.607 528.682 881.713 527.819C882.149 526.531 882.797 525.296 883.637 524.152C883.395 523.208 884.648 522.752 884.773 521.91C884.835 521.372 884.828 520.846 885.446 520.49C885.026 519.526 886.35 519.059 886.467 518.255C886.503 517.733 886.459 517.164 887.059 516.786C886.649 515.882 887.992 515.436 887.931 514.611C888.049 514.138 888.211 513.671 888.374 513.203C888.344 512.688 888.488 512.171 888.788 511.714C889.078 510.692 889.294 509.657 889.436 508.617C889.393 507.813 888.574 507.133 888.865 506.252C888.831 505.721 888.995 505.189 889.332 504.73C889.494 503.698 889.947 503.148 891.208 503.783C894.563 503.866 894.596 506.07 894.283 507.96C894.15 511.24 893.324 514.493 891.845 517.563C891.934 518.138 891.96 518.687 891.271 519.053L891.701 519.182L891.245 519.07C891.78 520.028 890.412 520.49 890.339 521.299C890.284 521.799 890.31 522.347 889.736 522.708C890.068 523.662 888.796 524.096 888.679 524.9C888.307 526.206 887.677 527.455 886.818 528.595C887.034 529.554 885.851 529.999 885.575 530.804C885.299 531.609 884.475 532.193 884.261 533.025C884.237 533.937 883.117 534.408 882.903 535.24C882.834 536.147 881.785 536.607 881.508 537.412C881.232 538.217 880.445 538.844 880.017 539.612C880.092 540.594 879.15 541.087 878.515 541.752C878.891 543.275 876.492 543.422 876.354 544.671C876.251 545.632 875.328 546.146 874.692 546.812C874.972 548.363 872.903 548.567 872.361 549.672C872.377 551.289 870.278 551.646 869.598 552.87L869.311 553.051L869.268 553.377C868.992 554.746 867.067 555.026 866.618 556.238C866.375 558.118 863.592 558.141 863.043 559.848C862.564 562.108 859.312 562.193 858.442 564.135C857.387 566.658 853.799 567.054 852.407 569.324L852.036 569.358L851.922 569.695C849.39 573.213 844.226 574.202 841.52 577.563C841.181 577.542 840.841 577.628 840.563 577.802C840.285 577.977 840.087 578.23 840.007 578.514C837.914 580.872 835.183 582.771 832.059 584.043ZM737.967 552.767C740.833 551.43 743.478 549.833 746.216 548.345C752.296 544.659 757.426 539.94 761.263 534.501C764.346 530.197 766.133 525.34 766.459 520.375C766.741 517.989 766.422 515.596 765.521 513.358C764.62 511.12 763.159 509.088 761.236 507.399C759.313 505.71 756.973 504.404 754.373 503.567C751.772 502.731 748.973 502.384 746.162 502.549C737.891 502.753 729.887 505.506 723.644 510.297C715.118 516.615 708.203 524.353 703.353 533C698.503 541.647 695.829 551.008 695.506 560.466C695.474 561.2 695.509 561.933 695.61 562.658C695.609 562.84 695.652 563.018 695.736 563.183C695.82 563.347 695.943 563.494 696.098 563.614C696.253 563.735 696.437 563.826 696.637 563.883C696.838 563.939 697.051 563.96 697.264 563.943C698.336 563.87 699.404 563.743 700.462 563.56C713.521 561.777 726.204 558.127 737.967 552.767Z" fill="#F4FFFF" stroke="#F4FFFF" stroke-width="4"/>
</svg>
