<svg width="672" height="690" viewBox="0 0 672 690" fill="none" xmlns="http://www.w3.org/2000/svg">
<g clip-path="url(#clip0_159_948)">
<mask id="mask0_159_948" style="mask-type:alpha" maskUnits="userSpaceOnUse" x="16" y="127" width="536" height="526">
<path d="M532.315 214.248C559.044 267.449 553.403 335.144 544.822 389.612C536.549 444.502 525.643 486.585 506.324 523.305C487.364 560.077 460.042 591.116 425.582 612.836C391.532 634.238 349.985 646.269 301.816 650.561C253.596 655.222 198.035 652.04 146.387 625.71C94.6882 599.749 46.5429 550.588 26.722 489.733C7.31068 428.561 16.2238 355.694 55.0562 310.141C93.479 264.904 161.821 246.98 221.992 213.94C282.522 180.951 334.931 132.477 390.89 127.435C446.797 122.762 505.895 161.469 532.315 214.248Z" fill="#FFEE94"/>
</mask>
<g mask="url(#mask0_159_948)">
<path d="M532.315 214.248C559.044 267.449 553.403 335.144 544.822 389.612C536.549 444.502 525.643 486.585 506.324 523.305C487.364 560.077 460.042 591.116 425.582 612.836C391.532 634.238 349.985 646.269 301.816 650.561C253.596 655.222 198.035 652.04 146.387 625.71C94.6882 599.749 46.5429 550.588 26.722 489.733C7.31068 428.561 16.2238 355.694 55.0562 310.141C93.479 264.904 161.821 246.98 221.992 213.94C282.522 180.951 334.931 132.477 390.89 127.435C446.797 122.762 505.895 161.469 532.315 214.248Z" fill="#FFEE94"/>
<path d="M248.501 280.999C256.398 272.591 253.463 260.016 246.501 249C242.298 242.349 233.567 238.504 233.554 230.132C232.679 197.57 215.657 183.28 202.024 190.865C188.392 198.449 192.82 218.979 181.261 230.132C170.247 242.023 148.311 239.144 141.791 252.521C134.614 265.773 146.516 282.635 181.525 280.999C204.243 279.58 235.29 293.745 248.501 280.999Z" fill="white"/>
<path d="M146.638 438.355C149.747 435.356 152.673 425.355 146.638 418.855C140.138 411.855 131.138 419.855 127.138 412.856C128.138 404.355 124.138 396.856 116.638 393.356C109.138 388.356 92.1506 396.727 92.138 388.356C91.2623 355.794 64.1382 358.356 47.6382 358.355C34.4597 358.355 24.6383 368.855 21.1382 376.356C15.871 382.043 17.6381 395.856 3.63819 395.856C-10.8618 397.856 -19.8617 406.356 -19.8617 420.355C-22.8618 432.855 -1.87057 443.491 33.1381 441.855C43.1612 441.229 63.361 437.325 84.5002 438.355C111.275 439.66 139.255 445.478 146.638 438.355Z" fill="white"/>
</g>
</g>
<defs>
<clipPath id="clip0_159_948">
<rect width="670.778" height="689.946" fill="white" transform="translate(0.420166)"/>
</clipPath>
</defs>
</svg>
